<svg width="24" height="24" viewBox="0 0 48 48" fill="none" xmlns="http://www.w3.org/2000/svg"><path fill="#fff" fill-opacity=".01" d="M0 0h48v48H0z"/><path fill-rule="evenodd" clip-rule="evenodd" d="M24 4a20 20 0 100 40 20 20 0 000-40zM0 24a24 24 0 1148 0 24 24 0 01-48 0z" fill="#fcfcfc"/><path fill-rule="evenodd" clip-rule="evenodd" d="M19.18 45.47c-.19-.25-.19-2.47 0-6.67-2.07.07-3.38-.07-3.92-.43-.82-.54-1.64-2.2-2.37-3.37-.73-1.17-2.34-1.36-3-1.62-.65-.26-.81-1.33 1.8-.52 2.61.8 2.74 3 3.57 3.51.82.52 2.8.3 3.68-.12.9-.41.83-1.94 1-2.55.2-.57-.52-.7-.53-.7-.87 0-5.46-1-6.71-5.43-1.26-4.44.36-7.34 1.22-8.58.58-.83.53-2.6-.15-5.32 2.46-.31 4.36.46 5.7 2.33 0 .01 1.76-1.04 4.53-1.04 2.77 0 3.76.86 4.51 1.04.76.18 1.37-3.27 6.06-2.33-.98 1.93-1.8 4.33-1.18 5.32.63.98 3.08 4.12 1.58 8.58-1 2.97-2.98 4.78-5.93 5.43-.34.11-.5.29-.5.53 0 .36.45.4 1.1 2.08.45 1.13.48 4.34.1 9.64-.95.24-1.69.4-2.22.48a24.37 24.37 0 01-5.68.17 19.8 19.8 0 01-2.66-.43z" fill="#fcfcfc"/></svg>