<svg width="24" height="24" viewBox="0 0 48 48" fill="none" xmlns="http://www.w3.org/2000/svg"><path fill="#fff" fill-opacity=".01" d="M0 0h48v48H0z"/><circle cx="9" cy="8" r="4" fill="#FFF" stroke="#fcfcfc" stroke-width="2"/><path fill="#FFF" stroke="#fcfcfc" stroke-width="2" stroke-linejoin="round" d="M5 18h8v25H5z"/><path d="M28 43h-7V29a11 11 0 0122 0v14h-7V28.81a4 4 0 00-8 0V43z" fill="#FFF"/><path d="M21 43h-2c0 1.1.9 2 2 2v-2zm7 0v2a2 2 0 002-2h-2zm8 0h-2c0 1.1.9 2 2 2v-2zm7 0v2a2 2 0 002-2h-2zm-22 2h7v-4h-7v4zm9-2V28.81h-4V43h4zm4-14.19V43h4V28.81h-4zM36 45h7v-4h-7v4zm9-2V29h-4v14h4zM19 29v14h4V29h-4zm26 0a13 13 0 00-13-13v4a9 9 0 019 9h4zm-13-2.19a2 2 0 012 2h4a6 6 0 00-6-6v4zM32 16a13 13 0 00-13 13h4a9 9 0 019-9v-4zm-2 12.81c0-1.1.9-2 2-2v-4a6 6 0 00-6 6h4z" fill="#fcfcfc"/></svg>